<svg width="826" height="356" viewBox="0 0 826 356" fill="none" xmlns="http://www.w3.org/2000/svg">
<path d="M496.13 352.973H460.719V231.897H496.13V275.787H504.983C522.435 275.787 528.506 272.76 539.382 247.284L545.958 231.897H580.611V234.672L570.999 258.383C565.182 272.76 557.341 284.111 548.994 290.922L584.405 350.198V352.973H547.223L517.63 303.534H496.13V352.973Z" fill="#191919"/>
<path d="M310.044 352.973V231.897H345.455V245.518H347.479C352.538 237.194 366.196 228.618 384.155 228.618C415.519 228.618 432.971 254.599 432.971 287.39V352.973H397.56V287.39C397.56 269.229 389.466 258.383 371.508 258.383C354.055 258.383 345.708 268.472 345.455 285.877V352.973H310.044Z" fill="#191919"/>
<path d="M166.785 233.663C181.709 230.132 199.161 229.123 210.29 229.123C263.407 229.123 277.571 252.581 277.065 278.31V326.992L289.712 327.244V352.469C284.148 353.982 278.077 355.243 272.007 355.243C257.084 355.243 249.495 347.424 247.725 337.839H245.448C236.343 350.451 220.155 356 204.473 356C180.191 356 157.68 342.883 157.68 315.137C157.68 283.859 186.514 275.787 215.096 275.787H244.184C243.678 260.905 226.225 255.608 206.749 255.608C195.114 255.608 180.697 257.626 170.327 261.662L166.785 233.663ZM193.091 315.137C193.091 325.983 200.426 330.271 212.314 330.271C231.537 330.271 244.184 319.425 244.184 298.741L221.673 298.489C200.679 298.489 193.091 304.038 193.091 315.137Z" fill="#191919"/>
<path d="M12.6467 352.973V189.016H48.0577V245.518H50.3342C55.8988 237.447 68.2926 228.618 87.0099 228.618C119.133 228.618 143.668 254.347 143.668 291.931C143.668 329.767 119.133 355.496 84.2276 355.496C67.2809 355.496 54.3811 349.694 44.7696 341.37L42.2402 352.973H12.6467ZM48.0577 315.137C54.6341 321.695 64.2456 325.731 76.3866 325.731C98.392 325.731 107.245 313.119 107.245 291.931C107.245 269.734 97.6332 258.635 78.1571 258.635C57.1634 258.635 48.0577 271.499 48.0577 292.435V315.137Z" fill="#191919"/>
<path d="M703.215 44.6467C718.121 41.1153 735.553 40.1063 746.67 40.1063C799.725 40.1063 813.873 63.5647 813.368 89.2933V137.976L826 138.228V163.452C820.442 164.965 814.378 166.227 808.315 166.227C793.409 166.227 785.83 158.407 784.061 148.822H781.787C772.692 161.434 756.523 166.983 740.859 166.983C716.605 166.983 694.12 153.867 694.12 126.12C694.12 94.8425 722.921 86.7709 751.47 86.7709H780.524C780.019 71.8887 762.586 66.5916 743.133 66.5916C731.511 66.5916 717.11 68.6095 706.752 72.6454L703.215 44.6467ZM729.49 126.12C729.49 136.967 736.817 141.255 748.691 141.255C767.892 141.255 780.524 130.408 780.524 109.725L758.039 109.473C737.069 109.473 729.49 115.022 729.49 126.12Z" fill="#191919"/>
<path d="M596.96 163.956H561.59V42.8809H596.96V86.7708H605.803C623.235 86.7708 629.299 83.7439 640.163 58.2676L646.731 42.8809H681.344V45.6555L671.743 69.3661C665.932 83.7439 658.606 94.8425 649.763 101.905L685.133 161.182V163.956H647.995L618.435 114.517H596.96V163.956Z" fill="#191919"/>
<path d="M411.089 163.956V0H446.46V56.5019H448.481C453.534 48.178 467.176 39.6018 485.114 39.6018C516.442 39.6018 533.874 65.5826 533.874 98.3738V163.956H498.504V98.3738C498.504 80.2125 490.42 69.3662 472.482 69.3662C455.049 69.3662 446.712 79.4558 446.46 96.8604V163.956H411.089Z" fill="#191919"/>
<path d="M275.214 103.419C275.214 66.0871 300.731 40.3585 346.46 40.3585C362.124 40.3585 377.282 43.3854 386.378 46.6645L381.83 76.6812C370.461 72.1409 358.334 70.1229 348.481 70.1229C321.953 70.1229 311.595 84.7529 311.595 103.671C311.595 122.337 322.206 136.462 351.513 136.462C365.661 136.462 376.525 133.183 385.872 128.391L389.662 157.146C380.819 161.939 364.65 166.227 346.46 166.227C303.258 166.227 275.214 142.264 275.214 103.419Z" fill="#191919"/>
<path d="M192.187 167.992C155.048 167.992 123.973 143.777 123.973 103.419C123.973 63.0603 155.048 38.8452 192.187 38.8452C229.073 38.8452 260.148 63.0603 260.148 103.419C260.148 143.777 229.073 167.992 192.187 167.992ZM192.187 138.228C212.146 138.228 223.768 123.346 223.768 103.419C223.768 83.4918 212.146 68.6096 192.187 68.6096C171.976 68.6096 160.354 83.4918 160.354 103.419C160.354 123.346 171.976 138.228 192.187 138.228Z" fill="#191919"/>
<path d="M115.206 42.8809V74.1587H75.2879V163.956H39.9178V74.1587H0V42.8809H115.206Z" fill="#191919"/>
</svg>
