<svg width="680" height="316" viewBox="0 0 680 316" fill="none" xmlns="http://www.w3.org/2000/svg">
<path d="M486.327 312.181H451.298V192.214H486.327V235.702H495.084C512.348 235.702 518.353 232.703 529.112 207.46L535.617 192.214H569.896V194.963L560.388 218.457C554.633 232.703 546.876 243.95 538.62 250.698L573.649 309.431V312.181H536.868L507.594 263.194H486.327V312.181Z" fill="#191919"/>
<path d="M307.38 192.214H342.409V233.202H386.195V192.214H421.224V312.181H386.195V263.694H342.409V312.181H307.38V192.214Z" fill="#191919"/>
<path d="M165.667 193.963C180.429 190.464 197.694 189.464 208.703 189.464C261.246 189.464 275.258 212.708 274.757 238.201V286.438L287.268 286.688V311.681C281.763 313.18 275.758 314.43 269.753 314.43C254.991 314.43 247.485 306.682 245.733 297.185H243.482C234.474 309.681 218.461 315.18 202.948 315.18C178.928 315.18 156.66 302.183 156.66 274.691C156.66 243.7 185.183 235.702 213.457 235.702H242.23C241.73 220.956 224.466 215.707 205.2 215.707C193.69 215.707 179.429 217.707 169.17 221.706L165.667 193.963ZM191.689 274.691C191.689 285.438 198.945 289.687 210.704 289.687C229.72 289.687 242.23 278.94 242.23 258.445L219.962 258.196C199.195 258.196 191.689 263.694 191.689 274.691Z" fill="#191919"/>
<path d="M87.7475 178.468C54.9705 181.217 37.2058 192.464 34.2033 221.956H36.9556C46.4634 205.46 63.2273 196.213 84.9952 196.213C114.52 196.213 142.793 214.208 142.793 255.946C142.793 295.685 114.77 315.93 75.4874 315.93C30.2 315.93 5.92997 286.438 5.92997 234.702C5.92997 197.212 17.9399 153.724 87.7475 147.976L129.782 144.477L130.283 174.969L87.7475 178.468ZM76.238 286.438C98.006 286.438 106.763 273.691 106.763 255.946C106.763 236.702 97.0052 225.455 76.9886 225.455C57.9729 225.455 47.4643 235.452 42.2099 245.699C42.2099 269.692 50.9671 286.438 76.238 286.438Z" fill="#191919"/>
<path d="M558.325 6.67812C573.088 3.17908 590.352 2.17936 601.361 2.17936C653.904 2.17936 667.916 25.4229 667.415 50.9159V99.1526L679.926 99.4025V124.396C674.421 125.895 668.416 127.145 662.411 127.145C647.649 127.145 640.143 119.397 638.392 109.9H636.14C627.132 122.396 611.119 127.895 595.606 127.895C571.586 127.895 549.318 114.898 549.318 87.4058C549.318 56.4144 577.842 48.4166 606.115 48.4166H634.889C634.388 33.6707 617.124 28.4221 597.858 28.4221C586.349 28.4221 572.087 30.4216 561.828 34.4205L558.325 6.67812ZM584.347 87.4058C584.347 98.1529 591.603 102.402 603.363 102.402C622.378 102.402 634.889 91.6547 634.889 71.1603L612.62 70.9104C591.853 70.9104 584.347 76.4089 584.347 87.4058Z" fill="#191919"/>
<path d="M453.096 124.896H418.067V4.92865H453.096V48.4167H461.853C479.118 48.4167 485.122 45.4175 495.881 20.1744L502.387 4.92865H536.665V7.6779L527.157 31.1714C521.402 45.4175 513.646 56.6644 505.389 63.4125L540.418 122.146V124.896H503.638L474.364 75.9091H453.096V124.896Z" fill="#191919"/>
<path d="M353.05 4.92865H388.079V124.896H353.05V81.9074C343.543 85.9063 332.534 88.4056 321.274 88.4056C294.752 88.4056 273.485 74.6594 273.485 40.6688V4.92865H308.514V40.9187C308.514 51.9157 315.52 61.1631 330.782 61.1631C337.788 61.1631 346.045 59.1637 353.05 56.1645V4.92865Z" fill="#191919"/>
<path d="M191.259 128.894C154.478 128.894 123.703 104.901 123.703 64.912C123.703 24.9231 154.478 0.929688 191.259 0.929688C227.789 0.929688 258.564 24.9231 258.564 64.912C258.564 104.901 227.789 128.894 191.259 128.894ZM191.259 99.4025C211.025 99.4025 222.534 84.6566 222.534 64.912C222.534 45.1675 211.025 30.4215 191.259 30.4215C171.242 30.4215 159.733 45.1675 159.733 64.912C159.733 84.6566 171.242 99.4025 191.259 99.4025Z" fill="#191919"/>
<path d="M115.02 4.92865V35.9201H75.4873V124.896H40.4584V35.9201H0.925781V4.92865H115.02Z" fill="#191919"/>
</svg>
